<svg width="165" height="180" viewBox="0 0 92 100" fill="none" xmlns="http://www.w3.org/2000/svg">
<path d="M69.3695 84.9951C69.3768 84.9806 69.384 84.966 69.3912 84.9515C70.3565 83.0068 71.235 80.9345 72.0211 78.7539C77.6888 78.0548 82.0445 75.8154 84.2569 71.9835C86.4693 68.1515 86.2307 63.2597 84.0024 58.0018C85.4978 56.2307 86.8532 54.4338 88.0547 52.6254L88.0816 52.5849C91.9082 59.78 93.5381 67.9694 89.4797 74.9989C85.4212 82.0283 77.514 84.7115 69.3695 84.9951Z" fill="#3D4A55"/>
<path d="M66.3836 84.9953C66.5999 84.5899 66.8099 84.1816 67.0136 83.7713C67.7663 82.2549 68.4654 80.6526 69.1076 78.9746C67.0995 79.0379 64.9632 78.934 62.7287 78.6648C61.8445 80.7345 60.8664 82.6365 59.8075 84.344C61.5818 84.6269 63.319 84.8225 65.0086 84.9288C65.4658 84.9576 65.9244 84.9799 66.3836 84.9953Z" fill="#3D4A55"/>
<path d="M25.9735 84.9957C26.4262 84.9803 26.8784 84.9583 27.3292 84.9299C29.0188 84.8236 30.756 84.628 32.5303 84.3451C31.4714 82.6376 30.4933 80.7356 29.6091 78.6659C27.3819 78.9342 25.2523 79.0383 23.2499 78.9763C23.8918 80.6537 24.5908 82.2554 25.3432 83.7713C25.547 84.1818 25.7571 84.5902 25.9735 84.9957Z" fill="#3D4A55"/>
<path d="M19.5938 65.3475C21.8866 67.2515 24.347 69.0874 26.9523 70.8295C26.2186 68.0868 25.6252 65.1691 25.1916 62.1156C22.764 60.2133 20.5339 58.2406 18.5255 56.2338C18.7316 59.3612 19.0913 62.4099 19.5938 65.3475Z" fill="#3D4A55"/>
<path d="M18.5268 43.7448C18.7334 40.618 19.0938 37.57 19.5967 34.6331C21.8833 32.7357 24.3363 30.9059 26.9334 29.1693C26.1996 31.912 25.6062 34.8297 25.1726 37.8832C22.7531 39.7791 20.5299 41.7449 18.5268 43.7448Z" fill="#3D4A55"/>
<path d="M23.2492 21.0231C23.8914 19.3451 24.5905 17.7429 25.3432 16.2265C25.5469 15.8161 25.7569 15.4078 25.9732 15.0025C26.4324 15.0179 26.891 15.0401 27.3482 15.0689C29.0378 15.1752 30.775 15.3708 32.5493 15.6538C31.4904 17.3612 30.5123 19.2632 29.6281 21.3329C27.3936 21.0638 25.2573 20.9599 23.2492 21.0231Z" fill="#3D4A55"/>
<path d="M28.2464 35.5887C28.7921 32.5308 29.505 29.6476 30.3588 26.9847C30.976 26.6094 31.6002 26.2395 32.231 25.8753C40.4992 21.1016 49.0377 17.8094 56.9688 16.1715C57.7459 17.3382 58.4975 18.6436 59.2151 20.0892C59.4799 20.6227 59.738 21.1716 59.9889 21.7352C58.2378 22.0393 56.4372 22.4381 54.6 22.9307L54.6052 22.9333C51.8631 23.6692 49.0397 24.6142 46.1784 25.7654L46.1702 25.7621C42.5601 27.2141 38.8897 28.9946 35.2464 31.0981C32.7868 32.5181 30.4485 34.0225 28.2464 35.5887Z" fill="#3D4A55"/>
<path d="M28.2439 64.3948C28.789 67.453 29.5013 70.3366 30.3546 73.0001C30.9794 73.3802 31.6113 73.7548 32.25 74.1235C32.8888 74.4923 33.5291 74.8523 34.1707 75.2033C36.9039 74.6105 39.7574 73.7856 42.6784 72.7286C40.2131 71.602 37.733 70.3254 35.2654 68.9008C32.7978 67.4761 30.4522 65.9665 28.2439 64.3948Z" fill="#3D4A55"/>
<path d="M56.9878 83.8273C57.7649 82.6606 58.5165 81.3552 59.2341 79.9096C59.4989 79.3761 59.757 78.8272 60.0079 78.2636C59.5403 78.1824 59.0692 78.0944 58.5949 77.9998C55.7685 79.5094 52.9162 80.8539 50.0703 82.0251C52.412 82.7579 54.7246 83.36 56.9878 83.8273Z" fill="#3D4A55"/>
<path d="M65.4082 70.8153C66.1415 68.0721 66.7343 65.154 67.1674 62.1C69.5868 60.2029 71.8098 58.2358 73.8123 56.2349C73.6062 59.3623 73.2465 62.411 72.744 65.3486C70.4579 67.247 68.0052 69.0777 65.4082 70.8153Z" fill="#3D4A55"/>
<path d="M67.1652 37.8821C66.7316 34.8286 66.1382 31.9109 65.4044 29.1682C68.0098 30.9104 70.4702 32.7463 72.763 34.6502C73.2655 37.5878 73.6252 40.6365 73.8313 43.7639C71.8229 41.7571 69.5928 39.7844 67.1652 37.8821Z" fill="#3D4A55"/>
<path d="M75.8623 62.6228C76.2705 59.5716 76.5317 56.4284 76.6368 53.225C84.704 44.0287 87.9835 34.5029 84.2379 28.0153C82.0282 24.1879 77.6802 21.9493 72.0224 21.2474C71.236 19.0655 70.3571 16.992 69.3912 15.0462C69.3843 15.0323 69.3773 15.0183 69.3704 15.0044C77.5079 15.2917 85.4055 17.9762 89.4607 25C94.0114 32.882 91.4102 42.2223 86.5796 49.9842L86.5888 49.9989C86.3458 50.3889 86.0973 50.7749 85.8437 51.1565C84.9069 52.5665 83.8688 53.9731 82.7367 55.3682L82.7295 55.3548C80.7234 57.8284 78.4213 60.2659 75.8623 62.6228Z" fill="#3D4A55"/>
<path d="M22.9873 15.0026C14.8428 15.2862 6.93559 17.9694 2.87711 24.9989C-1.18136 32.0284 0.448544 40.2177 4.27519 47.4129L4.30213 47.3723C5.50363 45.5639 6.85901 43.7671 8.35439 41.996C6.12603 36.7381 5.88751 31.8462 8.09989 28.0142C10.3123 24.1823 14.668 21.9429 20.3357 21.2438C21.1218 19.0632 22.0003 16.991 22.9656 15.0462C22.9728 15.0317 22.98 15.0172 22.9873 15.0026Z" fill="#3D4A55"/>
<path d="M75.8598 37.3562C77.6653 39.0178 79.343 40.7196 80.8794 42.4459C80.2575 43.7023 79.5028 45.0058 78.6097 46.3501C78.2801 46.8462 77.9337 47.3441 77.5711 47.8432C77.267 47.4789 76.9553 47.1149 76.6361 46.7514C76.5303 43.5489 76.2685 40.4065 75.8598 37.3562Z" fill="#3D4A55"/>
<path d="M62.0022 26.9977C62.8555 29.6611 63.5678 32.5447 64.1129 35.6029C61.9046 34.0312 59.559 32.5217 57.0914 31.097C54.6238 29.6723 52.1437 28.3958 49.6784 27.2691C52.5994 26.2121 55.4529 25.3872 58.1861 24.7945C58.8277 25.1455 59.468 25.5054 60.1068 25.8742C60.7455 26.243 61.3774 26.6176 62.0022 26.9977Z" fill="#3D4A55"/>
<path d="M35.369 16.1704C37.6322 16.6378 39.9448 17.2399 42.2866 17.9727C39.4406 19.1438 36.5883 20.4883 33.762 21.998C33.2876 21.9033 32.8165 21.8154 32.3489 21.7342C32.5998 21.1705 32.8579 20.6217 33.1227 20.0881C33.8403 18.6425 34.5919 17.3371 35.369 16.1704Z" fill="#3D4A55"/>
<path d="M62.7282 21.3318C64.956 21.0643 67.086 20.9611 69.0886 21.0242C68.4464 19.3462 67.7473 17.7439 66.9946 16.2276C66.7909 15.8172 66.5809 15.4089 66.3646 15.0036C65.9054 15.0189 65.4468 15.0412 64.9896 15.07C63.3057 15.1759 61.5745 15.3706 59.8064 15.652C60.8655 17.3596 61.8439 19.2618 62.7282 21.3318Z" fill="#3D4A55"/>
<path d="M35.3673 83.8248C34.5908 82.6587 33.8398 81.3542 33.1227 79.9096C32.8575 79.3754 32.5992 78.8259 32.348 78.2615C40.0062 76.929 48.6125 73.7862 57.0724 68.9018C59.54 67.4772 61.8856 65.9676 64.094 64.3959C63.5488 67.4541 62.8365 70.3377 61.9832 73.0011C61.3584 73.3812 60.7265 73.7558 60.0878 74.1246C58.2666 75.1761 56.4324 76.1557 54.5944 77.0615L54.6052 77.0644C51.7938 78.4497 48.9737 79.6625 46.1784 80.6962L46.1704 80.6932C42.5013 82.0506 38.875 83.0995 35.3673 83.8248Z" fill="#3D4A55"/>
<path d="M15.7207 53.2464C15.8265 56.4489 16.0883 59.5913 16.497 62.6415C14.6915 60.9799 13.0137 59.2782 11.4774 57.5519C12.0992 56.2955 12.854 54.9919 13.7471 53.6477C14.0767 53.1516 14.423 52.6536 14.7857 52.1546C15.0898 52.5189 15.4015 52.8829 15.7207 53.2464Z" fill="#3D4A55"/>
<path d="M13.0688 49.9867C13.8786 48.9077 14.7574 47.8278 15.7017 46.7525C15.8075 43.5499 16.0693 40.4075 16.478 37.3573C12.4712 41.0448 9.09337 44.9302 6.49407 48.8424C1.19212 56.8223 -1.92436 66.7164 2.85813 74.9999C6.9166 82.0294 14.8238 84.7126 22.9683 84.9962L22.9466 84.9526C21.9813 83.0079 21.1028 80.9356 20.3167 78.755C14.649 78.0559 10.2933 75.8165 8.08091 71.9846C5.50089 67.5159 6.25399 61.6057 9.609 55.3546L9.62009 55.3682C10.5694 53.5975 11.7275 51.7994 13.0778 49.9989L13.0688 49.9867Z" fill="#3D4A55"/>
<path fill-rule="evenodd" clip-rule="evenodd" d="M66.9946 83.7724C62.7347 92.354 55.7244 100 46.1594 100C36.5944 100 29.5841 92.354 25.3242 83.7724C20.8791 74.8175 18.3026 62.869 18.3026 50C18.3026 37.131 20.8791 25.1825 25.3242 16.2276C29.5841 7.64603 36.5944 0 46.1594 0C55.7244 0 62.7347 7.64597 66.9946 16.2276C71.4397 25.1824 74.0162 37.131 74.0162 50C74.0162 62.869 71.4397 74.8175 66.9946 83.7724ZM46.1594 93.9693C58.2136 93.9693 67.9854 74.2835 67.9854 50C67.9854 25.7165 58.2136 6.03075 46.1594 6.03075C34.1052 6.03075 24.3334 25.7165 24.3334 50C24.3334 74.2835 34.1052 93.9693 46.1594 93.9693Z" fill="#3D4A55"/>
</svg>
