<svg width="16" height="16" viewBox="0 0 16 16" fill="none" xmlns="http://www.w3.org/2000/svg">
<g opacity="0.35">
<g clip-path="url(#clip0)">
<path d="M12.0981 2.79448C12.0981 2.41936 11.794 2.11523 11.4189 2.11523H2.67925C2.30412 2.11523 2 2.41936 2 2.79448V11.041C2 11.4161 2.30412 11.7202 2.67925 11.7202H3.4544C3.47152 12.904 4.43935 13.8621 5.62717 13.8621C6.81503 13.8621 7.78282 12.9041 7.79994 11.7202H11.4189C11.794 11.7202 12.0981 11.4161 12.0981 11.041V10.2024C12.0981 7.23031 12.0981 6.62963 12.0981 2.79448ZM5.62717 12.5036C5.17774 12.5036 4.81208 12.138 4.81208 11.6885C4.81208 11.2391 5.17774 10.8734 5.62717 10.8734C6.0766 10.8734 6.44226 11.2391 6.44226 11.6885C6.44226 12.138 6.0766 12.5036 5.62717 12.5036Z" fill="#3D4A55"/>
<path d="M9.92453 10.6265C9.92453 10.3764 10.1273 10.1737 10.3774 10.1737H13.5472C13.7973 10.1737 14 10.3764 14 10.6265V11.2605C14 11.5106 13.7973 11.7133 13.5472 11.7133H10.3774C10.1273 11.7133 9.92453 11.5106 9.92453 11.2605V10.6265Z" fill="#3D4A55"/>
</g>
</g>
<defs>
<clipPath id="clip0">
<rect width="12" height="11.7736" fill="white" transform="translate(2 2.11328)"/>
</clipPath>
</defs>
</svg>
