<svg width="16" height="16" viewBox="0 0 16 16" fill="none" xmlns="http://www.w3.org/2000/svg">
<g opacity="0.5">
<path d="M6.97402 2.87147C6.97402 3.72114 6.28523 4.40993 5.43556 4.40993C4.58589 4.40993 3.89709 3.72114 3.89709 2.87147C3.89709 2.0218 4.58589 1.33301 5.43556 1.33301C6.28523 1.33301 6.97402 2.0218 6.97402 2.87147Z" fill="#96999A"/>
<path d="M12.1022 2.87147C12.1022 3.72114 11.4134 4.40993 10.5638 4.40993C9.71409 4.40993 9.0253 3.72114 9.0253 2.87147C9.0253 2.0218 9.71409 1.33301 10.5638 1.33301C11.4134 1.33301 12.1022 2.0218 12.1022 2.87147Z" fill="#96999A"/>
<path d="M6.97402 7.99967C6.97402 8.84934 6.28523 9.53814 5.43556 9.53814C4.58589 9.53814 3.89709 8.84934 3.89709 7.99967C3.89709 7.15001 4.58589 6.46121 5.43556 6.46121C6.28523 6.46121 6.97402 7.15001 6.97402 7.99967Z" fill="#96999A"/>
<path d="M12.1022 7.99967C12.1022 8.84934 11.4134 9.53814 10.5638 9.53814C9.71409 9.53814 9.0253 8.84934 9.0253 7.99967C9.0253 7.15001 9.71409 6.46121 10.5638 6.46121C11.4134 6.46121 12.1022 7.15001 12.1022 7.99967Z" fill="#96999A"/>
<path d="M6.97402 13.1279C6.97402 13.9775 6.28523 14.6663 5.43556 14.6663C4.58589 14.6663 3.89709 13.9775 3.89709 13.1279C3.89709 12.2782 4.58589 11.5894 5.43556 11.5894C6.28523 11.5894 6.97402 12.2782 6.97402 13.1279Z" fill="#96999A"/>
<path d="M12.1022 13.1279C12.1022 13.9775 11.4134 14.6663 10.5638 14.6663C9.71409 14.6663 9.0253 13.9775 9.0253 13.1279C9.0253 12.2782 9.71409 11.5894 10.5638 11.5894C11.4134 11.5894 12.1022 12.2782 12.1022 13.1279Z" fill="#96999A"/>
</g>
</svg>
