<svg width="18" height="20" viewBox="0 0 18 20" fill="none" xmlns="http://www.w3.org/2000/svg">
  <g clip-path="url(#clip0)">
    <path d="M9.01556 7.84838C10.9284 7.84838 12.5027 6.29454 12.5027 4.3612C12.5027 2.42787 10.9489 0.874023 9.01556 0.874023C7.08223 0.874023 5.52839 2.42787 5.52839 4.3612C5.52839 6.29454 7.09762 7.84838 9.01556 7.84838Z" fill="white"/>
    <path d="M2.47207 15.6485V15.8229C2.47207 16.0639 2.66182 16.2537 2.90284 16.2537H15.1028C15.2977 16.2537 15.4567 16.1306 15.5131 15.9614C13.8003 14.2537 11.4362 13.1973 8.82591 13.1973C6.38489 13.1973 4.15412 14.1255 2.47207 15.6485Z" fill="white"/>
    <path d="M16.0001 12.8689C15.836 12.8689 15.6821 12.8996 15.5386 12.956C15.5232 10.5868 13.9078 8.55091 11.5898 8.01758C11.5539 8.01758 11.5386 8.01758 11.5232 8.01758C11.5078 8.01758 11.5078 8.01758 11.4873 8.01758C11.4719 8.01758 11.4514 8.01758 11.436 8.01758C11.4206 8.01758 11.4206 8.01758 11.4001 8.01758C11.3796 8.01758 11.3642 8.03296 11.3488 8.03296H11.3334C11.2975 8.04835 11.2821 8.06886 11.2463 8.08424C10.5898 8.55091 9.83087 8.79194 9.02061 8.79194C8.21035 8.79194 7.45138 8.55091 6.79497 8.08424C6.77958 8.06886 6.74369 8.04835 6.70779 8.03296H6.6924C6.67702 8.03296 6.65651 8.01758 6.62574 8.01758C6.61035 8.01758 6.61035 8.01758 6.58984 8.01758C6.57445 8.01758 6.55394 8.01758 6.53856 8.01758C6.52317 8.01758 6.52317 8.01758 6.50266 8.01758C6.48728 8.01758 6.46676 8.01758 6.45138 8.01758C6.45138 8.01758 6.45138 8.01758 6.43599 8.01758C4.10779 8.55091 2.48728 10.5817 2.48728 12.9766C2.3283 12.9048 2.15394 12.8689 1.96933 12.8689C1.26163 12.8689 0.687275 13.4432 0.687275 14.1509C0.687275 14.4894 0.820608 14.7971 1.03086 15.0278C1.53856 14.4996 2.11292 14.0227 2.7283 13.6022C2.73343 13.5971 2.74369 13.5919 2.74881 13.5868C2.83599 13.5304 2.92317 13.474 3.01035 13.4176C4.69753 12.356 6.6924 11.7407 8.83086 11.7407C11.0668 11.7407 13.1437 12.4124 14.877 13.5663C14.9539 13.6176 15.0309 13.6689 15.1078 13.7253C15.118 13.7304 15.1283 13.7407 15.1386 13.7458C15.7334 14.1663 16.2821 14.6432 16.7796 15.1714C17.0873 14.9355 17.2873 14.5663 17.2873 14.1509C17.2821 13.4432 16.7078 12.8689 16.0001 12.8689Z" fill="white"/>
  </g>
  <rect x="4.52816" y="13.333" width="7.29167" height="1.04167" transform="rotate(45 4.52816 13.333)" fill="#ffffff"/>
  <rect width="7.29167" height="1.04167" transform="matrix(-0.707107 0.707107 0.707107 0.707107 13.1143 13.333)" fill="#ffffff"/>
  <defs>
    <clipPath id="clip0">
      <rect width="16.6667" height="15.4359" fill="white" transform="translate(0.666666 0.833008)"/>
    </clipPath>
  </defs>
</svg>
