<svg width="16" height="16" viewBox="0 0 16 16" fill="none" xmlns="http://www.w3.org/2000/svg">
<g opacity="0.35">
<g clip-path="url(#clip0)">
<path d="M8.01246 6.27968C9.54271 6.27968 10.8022 5.03661 10.8022 3.48994C10.8022 1.94327 9.55912 0.700195 8.01246 0.700195C6.46579 0.700195 5.22272 1.94327 5.22272 3.48994C5.22272 5.03661 6.4781 6.27968 8.01246 6.27968Z" fill="#3D4A55"/>
<path d="M2.77765 12.5196V12.6591C2.77765 12.8519 2.92944 13.0037 3.12226 13.0037H12.8823C13.0381 13.0037 13.1653 12.9053 13.2105 12.7699C11.8402 11.4037 9.94892 10.5586 7.86072 10.5586C5.9079 10.5586 4.12329 11.3012 2.77765 12.5196Z" fill="#4A5965"/>
<path d="M13.6001 10.2961C13.4688 10.2961 13.3457 10.3207 13.2309 10.3658C13.2185 8.47042 11.9262 6.84171 10.0719 6.41504C10.0432 6.41504 10.0308 6.41504 10.0185 6.41504C10.0062 6.41504 10.0062 6.41504 9.98982 6.41504C9.97752 6.41504 9.96111 6.41504 9.9488 6.41504C9.93649 6.41504 9.93649 6.41504 9.92008 6.41504C9.90367 6.41504 9.89136 6.42735 9.87906 6.42735H9.86675C9.83803 6.43965 9.82572 6.45606 9.797 6.46837C9.27187 6.84171 8.6647 7.03453 8.01649 7.03453C7.36829 7.03453 6.76111 6.84171 6.23598 6.46837C6.22367 6.45606 6.19495 6.43965 6.16623 6.42735H6.15393C6.14162 6.42735 6.12521 6.41504 6.10059 6.41504C6.08828 6.41504 6.08828 6.41504 6.07187 6.41504C6.05957 6.41504 6.04316 6.41504 6.03085 6.41504C6.01854 6.41504 6.01854 6.41504 6.00213 6.41504C5.98982 6.41504 5.97341 6.41504 5.96111 6.41504C5.96111 6.41504 5.96111 6.41504 5.9488 6.41504C4.08623 6.84171 2.78982 8.46632 2.78982 10.3822C2.66264 10.3248 2.52316 10.2961 2.37546 10.2961C1.80931 10.2961 1.34982 10.7556 1.34982 11.3217C1.34982 11.5925 1.45649 11.8386 1.62469 12.0232C2.03085 11.6007 2.49034 11.2191 2.98264 10.8827C2.98675 10.8786 2.99495 10.8745 2.99905 10.8704C3.0688 10.8253 3.13854 10.7802 3.20828 10.735C4.55803 9.88581 6.15393 9.3935 7.8647 9.3935C9.65341 9.3935 11.315 9.93093 12.7016 10.854C12.7632 10.895 12.8247 10.9361 12.8862 10.9812C12.8944 10.9853 12.9026 10.9935 12.9109 10.9976C13.3867 11.334 13.8257 11.7156 14.2237 12.1381C14.4698 11.9494 14.6298 11.654 14.6298 11.3217C14.6257 10.7556 14.1662 10.2961 13.6001 10.2961Z" fill="#4A5965"/>
</g>
<rect x="4.42255" y="10.667" width="5.83333" height="0.833333" transform="rotate(45 4.42255 10.667)" fill="white"/>
<rect width="5.83333" height="0.833333" transform="matrix(-0.707107 0.707107 0.707107 0.707107 11.2914 10.667)" fill="white"/>
</g>
<defs>
<clipPath id="clip0">
<rect width="13.3333" height="12.3487" fill="white" transform="translate(1.33334 0.666992)"/>
</clipPath>
</defs>
</svg>
