<svg width="18" height="14" viewBox="0 0 18 14" fill="none" xmlns="http://www.w3.org/2000/svg">
  <path d="M1.97397 9.94056C2.03387 10.158 2.26303 10.2884 2.48439 10.2296L8.1198 8.74613C8.34115 8.68731 8.47397 8.46223 8.41407 8.24483L7.1198 3.50037C7.0599 3.28297 6.83074 3.15253 6.60938 3.21135L4.59897 3.74335L5.2448 6.1143L3.63543 6.53631L2.9896 4.16536L0.976576 4.6948C0.755222 4.75362 0.622409 4.9787 0.682305 5.1961L1.97397 9.94056ZM10.6667 0.333984C10.2057 0.333984 9.83334 0.69973 9.83334 1.15244V9.42903L0.820326 11.8435C0.708347 11.8742 0.643243 11.9867 0.674493 12.0941L1.00262 13.2783C1.03387 13.3883 1.14845 13.4522 1.25783 13.4215L11.5104 10.6746C11.5729 12.2041 12.8438 13.4292 14.4167 13.4292C16.0286 13.4292 17.3333 12.1478 17.3333 10.5646V0.333984H10.6667ZM14.4167 11.7923C13.7266 11.7923 13.1667 11.2424 13.1667 10.5646C13.1667 9.88685 13.7266 9.33695 14.4167 9.33695C15.1068 9.33695 15.6667 9.88685 15.6667 10.5646C15.6667 11.2424 15.1068 11.7923 14.4167 11.7923Z" fill="white"/>
</svg>
