<svg width="16" height="16" viewBox="0 0 16 16" fill="none" xmlns="http://www.w3.org/2000/svg">
<g opacity="0.35">
<g clip-path="url(#clip0)">
<path d="M1.47974 2.71397C1.57738 2.61635 1.69338 2.56738 1.82694 2.56738H9.72831C9.86204 2.56738 9.97785 2.61635 10.0755 2.71397C10.1732 2.81173 10.2221 2.92753 10.2221 3.06126V4.54278H11.4567C11.5957 4.54278 11.7462 4.57621 11.9082 4.64307C12.0703 4.71004 12.2001 4.7922 12.2978 4.88996L13.8257 6.41777C13.8925 6.48464 13.9503 6.56174 13.9993 6.64925C14.0481 6.73655 14.0841 6.81519 14.1073 6.88452C14.1304 6.95403 14.1472 7.04908 14.1574 7.17008C14.1676 7.29102 14.1742 7.37974 14.1767 7.43636C14.1792 7.4929 14.1792 7.59068 14.1767 7.7296C14.1741 7.86857 14.1728 7.95851 14.1728 7.99972V10.4688C14.3065 10.4688 14.4223 10.5177 14.5201 10.6155C14.6178 10.7131 14.6667 10.8289 14.6667 10.9627C14.6667 11.0397 14.6565 11.108 14.6359 11.1671C14.6152 11.2262 14.5806 11.2738 14.5316 11.3099C14.4828 11.3459 14.4403 11.3754 14.4043 11.3986C14.3682 11.4218 14.3078 11.4371 14.223 11.4449C14.1381 11.4526 14.0803 11.4578 14.0494 11.4604C14.0185 11.4628 13.9529 11.4628 13.8526 11.4604C13.7522 11.4578 13.6944 11.4565 13.6789 11.4565H13.1852C13.1852 12.0017 12.9922 12.4672 12.6065 12.8531C12.2206 13.2389 11.7551 13.4318 11.2098 13.4318C10.6646 13.4318 10.199 13.2389 9.81326 12.8531C9.42741 12.4673 9.2346 12.0017 9.2346 11.4565H6.27153C6.27153 12.0017 6.07859 12.4672 5.69285 12.8531C5.30716 13.2389 4.84158 13.4318 4.29627 13.4318C3.75086 13.4318 3.28557 13.2389 2.89969 12.8531C2.51384 12.4673 2.32101 12.0017 2.32101 11.4565C2.30566 11.4565 2.24774 11.4578 2.1475 11.4604C2.04715 11.4628 1.98156 11.4628 1.9507 11.4604C1.91978 11.4578 1.86181 11.4526 1.777 11.4449C1.69216 11.4371 1.63179 11.4218 1.59571 11.3986C1.55963 11.3755 1.5173 11.3459 1.46844 11.3099C1.41952 11.2738 1.38474 11.2262 1.36423 11.1671C1.34342 11.108 1.33334 11.0397 1.33334 10.9627V3.06134C1.33323 2.92759 1.38207 2.81192 1.47974 2.71397ZM10.5155 12.151C10.7109 12.3464 10.9425 12.4443 11.2099 12.4443C11.4774 12.4443 11.709 12.3465 11.9044 12.151C12.0999 11.9556 12.1976 11.724 12.1976 11.4566C12.1976 11.1891 12.0998 10.9574 11.9044 10.762C11.709 10.5666 11.4775 10.4688 11.2099 10.4688C10.9425 10.4688 10.7109 10.5666 10.5155 10.762C10.32 10.9574 10.2222 11.1891 10.2222 11.4566C10.2222 11.724 10.32 11.9556 10.5155 12.151ZM10.2222 7.50579H13.1853V7.2744C13.1853 7.20751 13.1622 7.15091 13.1159 7.10459L11.6112 5.59999C11.5649 5.55367 11.5083 5.53059 11.4414 5.53059H10.2222V7.50579ZM3.60189 12.151C3.79729 12.3464 4.02882 12.4443 4.29627 12.4443C4.56383 12.4443 4.79544 12.3465 4.99084 12.151C5.18627 11.9556 5.28405 11.724 5.28405 11.4566C5.28405 11.1891 5.1863 10.9574 4.99084 10.762C4.79544 10.5666 4.56383 10.4688 4.29627 10.4688C4.02882 10.4688 3.79729 10.5666 3.60189 10.762C3.40646 10.9575 3.3086 11.1891 3.3086 11.4566C3.3086 11.724 3.40627 11.9556 3.60189 12.151Z" fill="#3D4A55"/>
</g>
</g>
<defs>
<clipPath id="clip0">
<rect width="13.3333" height="13.3333" fill="white" transform="matrix(-1 0 0 1 14.6667 1.33301)"/>
</clipPath>
</defs>
</svg>
